<?xml version="1.0" encoding="UTF-8"?>
<svg viewBox="0 0 744.09448819 1052.3622047" xmlns="http://www.w3.org/2000/svg">
 <path d="m-50.59187-83.39723c-1.49723.1488-2.25254,2.81713-3.80932,3.64993l-.44692-.68529c-1.82797,2.01267-3.96725,3.4637-6.37469,4.49162-1.11733.77467-2.73373,1.05775-2.48643,3.20596 1.1918.32782 1.69535.89387.52142,2.1244-.98325.46183-1.895.98325-3.08679,1.32592-.28298-1.62387-.581-3.23579-.64059-4.93263-.14913-.20858-.40225-.35754-.68529-.52142v-.52142c.46183-.22353 1.11733-.44692 1.11733-1.0428s-.78958-.86408-1.28121-.75979c0,.17869-.17869.19363-.32782.19363v-.19363c.16374-.14913.23847-.28298.23847-.47671 0-.26803-.19363-.47675-.44695-.52142v-.56612h.32782v-.19363h-.32782v-.32782h-.20858v.28298h-.32782v.19364h.32782v.56612c-.23847,0-.44692.25342-.44692.52142 0,.17869.1488.34263.23847.44692v.20858c-.16374.01328-.32782,0-.44692-.23847-.87896,0-1.01304.55121-1.04284.87896 0,.32782.43204.77467.83426.99813v.52142c-.49159.23847-.92363.43204-1.28118.8045-.14913.5363 0,1.10242.23847,1.6432 0-.19363.1488-.38733.23847-.47675 .26803-.20858.67041-.28298.96834.14913 0,1.40038.46183,2.98101-.59588,3.92998-1.3855-.41713-2.74712-.84917-3.44882-2.32551 1.69684-1.55084 0-2.18697-.64059-3.12702-3.59034-2.99891-7.62757-3.58735-10.70394-6.6965l-.23847.44695c-.90875-.74488-2.51918-2.33298-2.96759-2.00523-.46183.34263.4618,1.51656.96834,2.28678-1.34079,1.43017.47671,1.80857.96834,2.64582-.96834.96834.26803,1.69684.92367,2.48493-.29793.78958-.49163,1.59554 1.40038,2.20484-.75979,1.11733.35754,1.52699 1.28118,2.00523-.31287.93855.14913,1.31097.87896,1.48976 .23847.52142.25309,1.35567 1.11733.99813 .19364.59592.46183,1.07263 1.32588.80446 .1488,1.11733.75979,1.2365 1.72365.73 .14913.6555.32782,1.10242.80446.96834-.0066.75979-1.08751,2.13184.32782,2.08418 .14913.78958-.01328,2.01267 1.04284,1.20671 .34266.5363.56612,1.53596 1.35571.40225 .32782.40221.62567,1.25138 1.1173.20858 .35754.26803.26803,1.47488 1.35571.23847 .31287,0 .26803,1.62085.20858,1.68492l.47671-.1488v.84914c-1.95604.23847-1.99032,1.41529-1.84431,2.68458 .01328.01329 0,.01329 0,0-3.09872,1.87859-5.17097,5.2931-5.17097,9.1814 0,5.7162 4.50205,10.39555 10.14379,10.70394v.96834c-1.05772.34266-1.28118.46183-1.32588.99816 0,.5363.44692.67038.92367.99813l.28298,1.08751 .28298,3.20895c-.68529.50654-.55121,1.02796.14913,1.52254l.32782,8.90134-2.40595,1.88304c-.81938.96837-1.64021,1.9665-2.56687,2.64731-3.80484-2.9661-6.20039-.43201-7.29683,1.28121-1.11733,1.75493-1.40038,10.12293-.96837,15.27604 1.28121,8.13557 1.8369,16.34863 2.36576,24.5766-2.1423,1.44505-8.75384,5.01899-10.86635,5.81455v-1.68495l1.32592-3.48602-.14913-2.60709c-1.34076-1.01304-.74488-1.2663-.20858-1.52403 .80446-1.62384-.23847-3.26704-1.32592-4.89088l-1.16201-.80446c-1.89945-.64062-4.00448-2.45962-5.17097,1.48976-.16374-.81938-1.17689-1.2365-2.08564-1.68342-.14913,1.01301-.71509,2.05884.64059,2.88715l-.14913,1.11733c-1.65363,1.73853-1.29609,2.78585-1.28118,3.96871 0,1.53446.1488,2.4745.1488,3.44879-.41713,2.70394-.92363,5.39593-1.32588,8.09837-9.57617,3.12552-26.34794,5.09797-29.6284,3.64989l.16374-.56609-.64059-.23847c-1.7445-4.87152-2.61303-9.892-5.37357-14.63541-.26803-1.53147-1.47484-3.03764-2.40595-4.5706-2.3449-1.41526-4.45439-4.26368-7.01532-4.29052-1.25138-.01329-2.59516.62571-4.12959,2.44621l-1.44509.68529c-1.47487-.53633-1.6164-.14913-2.00523.19364l-.96834-.28298v.75979c1.31101.0033 1.57917.84917 2.08418,1.52403 .29793.92367.20858,1.73557 0,2.52515-.75975.86405-1.37058,1.62234-1.28117,1.92475 .20858.52142.22352,1.04284.16374,1.56426l1.20668,1.52254v2.52665c.53633,2.06183.98325,4.08941-.71509,5.45252 .32782.73.6853,1.54639 1.16204,2.56687 .44692.38733.50651.99813.68529,1.52254 .80447,1.1173 1.746.78955 2.68751.35754 0,0 3.27302,1.04284 3.48754,1.04284s-.16374,1.32588-.16374,1.32588h.16374l-.14879,1.64171c-1.3408,1.40038-2.49835,2.85735-2.96763,4.69276-.99813,1.45996-.81937,2.45215-.75976,3.48751l.92364,4.45144c.74488.98322.56612,3.14638.71508,4.32924 1.07263,3.60967-1.43017,4.11771-3.2879,5.21269l-.52141,2.9661c.87896,3.29833.80446,7.20898 1.08754,10.90508 .25342,1.47484.47671,2.96463 0,4.65101 .98322,3.62462 4.20409,5.31847 5.37357,2.72629 1.16201-2.55943-.7747-4.21901-1.56425-5.77283-.7598-.28298-.62571-1.25142-.52142-1.96501-.98325-5.3572-.81938-7.88232.32781-8.94007 .26804-.59592.31288-1.28118.28298-2.00523 1.47488.34266 2.29127-1.75789 3.12702-1.84431 .83425-.1488 1.13221.77467 1.88453.59592 1.61195-.73 3.48306.86405 5.09202-.52142-.43204-.74488-1.53595-1.5151-1.2365-2.20484l2.88715.40221c.47674,2.12291 1.65961,3.61416 2.72626,5.21269 0,0 .40225,5.22757.16374,5.45252-1.22159,1.13221.19363,6.11251.20858,6.53558 .46183,2.78438 0,5.59258-.35754,8.37843l.14879,2.56687c-.53629.55121-1.05771.95346-1.60298,1.32588-.14879.83426-.28298,1.62234-.44692,2.40449h-31.47421v2.72626h-9.62237v6.69646h-6.73672v6.69501h-264.44323l15.66188,20.20863v33.59861h-6.6965v6.73519h-26.94227l-13.43171,6.69501 13.43171,6.77694v6.69497l26.94227,20.16692v40.33533h-13.47036l13.47036,20.20714v302.54688h53.76702v-20.16692l-6.69647-6.73519v-289.11672l6.69647-6.73519h60.50075l6.77691,6.73519v289.11672l-6.77691,6.73519 .35755,20.16692h60.1819v-20.16692l-6.77691-6.73519v-289.11672l6.77691-6.73519h73.93245l6.73522,6.73519v289.11672l-6.73522,6.73519v20.16692h60.58119v-20.16692l-6.77545-6.73519v-289.11672l6.77545-6.73519h120.96421l6.73523,6.73519v289.11672l-6.73523,6.73519v20.16692h60.54098v-20.16692l-6.695-6.73519v-289.11672l6.695-6.73519h73.93244l6.77691,6.73519v289.11672l-6.77691,6.73519v20.16692h60.54244v-20.16692l-6.73519-6.73519v-289.11672l6.73519-6.73519h60.50075l6.77691,6.73519v289.11672l-6.77691,6.73519v20.16692h53.80575v-302.54688l13.43169-20.20714h-13.43169v-40.33533l26.90361-20.16692v-6.69497l13.47191-6.77694-13.47191-6.69501h-26.90361v-6.73519h-6.73522v-33.59861l15.34455-20.20863h-264.08572v-6.69501h-6.77691v-6.69646h-12.87005v-2.72626h-42.90071l-.1488-31.79452h.84917c.1488,1.47488.5363,2.89163 1.40038,4.2488 .14913,2.8529.52142,5.64918.32782,8.58103l-.87896,2.24506 1.20671,3.00635c-.25342.74488-.61083,1.29609-1.04284,1.68342l.68529,4.61232c.86405.38733 1.84132.5065 2.36573,1.6432l-.40225,3.00635c1.16204,2.06777 2.96463,2.63389 5.29313,2.0052 0-1.28118-.1488-1.92475.16374-3.84804l-.87896-1.35568 .14913-1.92479c.95343-.67038 1.72959-1.50019 1.44505-3.32812 0-1.29609-.41713-2.51771-1.04284-3.72887-.34263-1.16201-.23847-2.33149-.23847-3.48755 1.05772-3.51435 1.60444-6.70391 2.1244-9.8637 .80446-.62571 1.52848-.19364 2.24506.1488 0,2.83949 2.4566,6.49539-.52142,8.29948l-1.04284,2.96759c1.28121,4.65105.26803,9.22909-1.11733,13.79076 .14913,1.17689.14913,2.54448.83429,3.04803h7.41753l-.20858-1.44505-1.92329-2.04396c.00332-1.76241 0-3.56204.31287-5.4138-.38737-5.24099.41713-7.65441 1.16201-10.18401 2.87077-2.67265 2.63984-3.51883 3.24768-4.85069 1.61936-1.07263 1.66257-3.09868 2.00374-4.9311l2.88715-1.6447c.98325-.55121-1.37059,2.91548-.64059,3.40856 .74488.50654 1.13221-1.13221 1.84431-1.37055 1.77433.17869 3.2313.84913 4.65105,1.56422v6.37469l-1.6447,3.12851v2.56538c-3.97319,2.90355-2.86778,6.78737-.92367,7.01678 1.97843.23847 3.1866-.0066 3.88979-4.25029l-.44695-1.72365c.70021-.581 1.05775-1.5151 1.40038-2.44621 .32782-3.10317 0-6.327 1.7639-9.1814l.16374-3.40857c-1.49723-1.43017-2.01121-3.49797-2.64582-5.45252 .40221-1.25142.37242-4.03132.40221-4.04919 .38733-.20858.99816-1.63726.80446-3.60821 .41716-.80446.93858-1.61491 0-2.76648 .19364-1.5702-.75976-2.93484-1.60444-4.33074-.6555-.75979-.81938-1.96202-.99816-3.12702l-.35754-2.88565c.84917-1.16204 1.48976-2.32405 1.7639-3.48904 .71509-.20858 1.37055-.74488 1.88453-2.1244 .50654-.49163 1.01304-1.08751 1.52403-1.96501-.25309-.49159-.78958-.64059-.52142-1.84431 .14913-1.94116 0-3.96725.59592-5.73261l.92363-1.76387c.83429-.95346.89387-1.97989-.40221-3.12851l.14913-1.80409 .71509-1.48979c.83425-1.17689 2.28084-2.10354 1.48976-4.00893-.92363,1.14713-1.84282,1.3408-2.76648,1.76387-.6108-.67038-.89387-1.58212-2.40595-1.52403 .61079-1.14709.55121-1.58807.16374-1.60298h-.1488c-.35754,0-.92367.34266-1.60298.71509-1.52848.22353-3.20297,0-4.37096,1.32592-1.57468.26803-2.9274,1.17689-3.72888,3.56945-2.61603,1.66257-3.46818,3.4354-3.56799,5.29164-2.77841,3.55457-2.6041,7.84957-3.20746,11.94791l-.52142,2.92737-.47671,1.68492-.32782.80446v.14913c-6.96613,1.1173-13.83839.77467-20.68834.28298-4.83874-2.17953-9.69837-4.59146-14.43431-6.25403v-.23847h.14913c-.14913-1.05775 0-1.93821.35754-2.72776 .43201-.53633.71509-1.2365.87893-2.04396 0-.8045 0-1.6447.31287-2.44621-.62571-.43204-1.05775-1.13221-1.40038-1.96351 .38734-1.32588.5363-2.81863.52142-4.41118 .41713-1.48976 1.75048-2.79033.16374-4.65105-.32782-.81934-.6108-1.6715-1.32588-2.36573 .81934-2.13632 1.43017-4.08193-1.7639-1.80263-1.14709-1.60149-2.56089-2.06927-4.53035-.40221l-.92367-.92367c-.40221-4.58548-1.14713-16.89091-1.88453-20.88944-1.07263-5.82199-4.41121-11.03614-9.22165-5.25291 1.01304,2.68159.96837,5.23803-2.36573,7.37731-.1488.00996-.22353-.00299-.32782,0-.55121,0-.80446-.1488-1.04284-.20858h-.16374c0,0-.1488,0-.16374-.14913-.25309-.95343-.96834-1.32588-1.76387-1.60448-.89387-.56609-.99813-1.74301-1.35567-2.72626 .4618-1.05772.87896-2.07674.71509-3.12851 .47671-.1488.49159-.47671.47671-.83425 .37242-.35754.70017-.75979.75979-1.37059h.83426l-.32782-.75976 .56612-.19364-.23847-.47675 .35754-.1488v-.59592h-.52142l.71509-.52142-.44692-.31287 .40221-.96834-.64059.31287-.28298-1.84285-.20858,1.08754-1.32588-1.56276-.20858.32782-.71509-.87896v.68529h-.47671v-.44692l-1.68342.32782 .14913-.47671-1.40038.44692v-.35754l-1.52403.92367 .16374-.47671-1.92475,1.1173-.14913-.56609-.84913,1.28118-.68529.20858-.23847-8.25926c.52142-.56609.71509-1.16201-.1488-1.60298v-3.20895l.23847-1.04284c.34266-.37242.84917-.59588.83429-1.08751-.0066-.50654-.22353-.6555-1.28121-.87896l-.1488-.99813c5.41081-.53633 9.66259-5.11139 9.66259-10.66372 0-5.13075-3.8153-9.25888-7.37731-10.18551v-.8045c.67038-.19364 1.14713.37246 1.72365.56612 .17869-.1488.64059.98325.68529,1.08751 0,.14913.23847-.77467 0-.87893-.25342-.32782-.67038-.35754-.75979-.99816-.70017-.16374-1.38547-.26803-2.08418-.71509 0-.23847-.29793-.71509.23847-.64059v-.71509l.23847-.1488c.003-.62571-.20858-1.35571-.40225-2.04545 .14913-.22353.29793-.29793.44692-.40225 .34266.35754.67041.67038.87896,0 .32782.50654.70021.49162 1.16204-.14913 .38734.56609.72997.71509.99813-.28298 .37242.29793.75979.8045 1.11734-.40221 .64059.16374 1.23647.23847 1.1173-.80446 .67041.19364.78958-.20858.59592-.99816 .70017-.1488.38733-.70017.23847-1.20671 .28298-.16374.20858-.5363.20858-.83426 .73.20858.62571-.20858.59592-.56612 .5363.14913.81938,0 .80446-.68526 .80446.32782.64059-.34266.71509-.75979 .71509,0 .71509-.46183.68529-.99813 .31287-.22353.56609-.44695.35754-.92367 .61079-.41713.84917-.87896.47671-1.40038 .22353-.41713 1.04284-.5065.23847-1.47488 .29793-.64059 1.54785-.90875.71509-1.96497 .68529-.67041.78958-1.29609.40225-1.88457 .47671-.87896 1.81601-2.03054.75976-2.40446-.46183-.17869.56612-1.60896.83426-2.40748h-.16374zm-18.44327,6.73672c.14913,0 .19364,0 .23847.1488 .19363.19364.19363.72997 0,.92367-.1488.1488-.38733.1488-.47671,0-.19363-.19364-.19363-.73 0-.92367 0,0 .1488-.1488.23847-.1488zm1.35571,0c.1488,0 .19363,0 .23847.1488 .19364.19364.19364.72997 0,.92367-.1488.1488-.38733.1488-.47671,0-.19363-.19364-.19363-.73 0-.92367 0,0 .14913-.1488.23847-.1488zm-.99816,15.83615c.14913.78958 0,1.57468 0,2.36576-.20858-.22353-.4618-.37246-.59588-.87896v-.56612c.20858-.34263.19364-.84917.71509-.92363zm-1.72365,2.08567c.17869-.003.38734,0 .59592.16374 .17869.70021.1488,1.07263-.23847,1.20671-.29793-.581-.67038-.56612-1.04284-.20858-.17869.50654-.43204.73-.75976.8045v-.59592c.41713-.71509.84914-1.35568 1.48976-1.35568zm4.20858,3.80782c.78958,0 1.51062.28298 2.20634.56612 2.77395,1.11734 4.73,3.77953 4.73,6.97656 0,3.90468-2.87672,7.05999-6.65475,7.49648v-.35754-.44692l2.1244-.1488c-.62571-1.76091-1.72963-2.96018-1.80412-5.37211 2.06481.14913 3.74379,1.01304 5.45252,1.84434l-.16374-6.2153c-1.37055.87896-2.44468,1.90838-5.33186,1.96501-.20858-2.19591.83429-3.96874 1.68346-5.81305l-2.20488.19363v-.75979zm-1.72365,0c.0066.26803 0,.53633 0,.84917l-2.64582.20858c1.3408,1.8935 2.20185,3.79889 2.08418,5.69239-2.14081-.14913-3.48157-1.19183-5.0518-2.00523l.16374,5.93521c1.52702-.83426 3.04956-1.7177 5.0518-1.84434 .37242,1.9397-.73,3.70357-1.35571,5.533l2.12589-.14913c.0066.25342 0,.55121 0,.75979-3.88976-.32782-6.89611-3.55308-6.89611-7.5367 0-3.83765 2.77695-6.9736 6.45517-7.49797zm1.32588,41.45562 .1488,4.9326c-1.34076,0-2.47895,0-3.6484-.1488 0,0-.46183-.62571-.56612-.71509-.23847-.25342 2.00373-4.05513 2.36573-3.80932 .55121,0 1.10242-.14913 1.7639-.32782zm1.72365.52142h.52142c.0066.86408.01328,1.69535.19363,2.92591-.1488.50651-.38733.75976-.59588,1.08751l-.14913-4.05065zm16.19821,31.99563c.65547.73.4618,1.47488.56609,2.20484l.96834.28298 1.68492,5.57319c-.96834-.55121-2.02904-.93855-3.08825-1.32588l-.99816-4.81193c.61083-.26803.78958-1.04284.87896-1.92479zm-21.08909,3.60821v1.04284c-.44692.84917-.95346,1.2365-1.48976,1.48976v-1.72514l1.48976-.80446zm-7.85851,5.21119c.003,0-.003.1488 0,.1488-4.09685,3.03166-7.49498,6.74416-10.50429,10.86486l-.44695-5.57322c3.61864-1.74002 7.18663-3.39515 10.9453-5.4138zm-65.67319,7.057c.14913,0 .43204,2.7337.35754,2.52665-.14879-.43204-1.07263-.32782-1.28117.16374-.26804-.17869-.29793-.62571-.35755-.92367 .25309-.70017.78955-1.22159 1.28118-1.76536zm44.06271,2.44621c-.16374,1.1918-.31287,2.37765-.40225,3.56945l-.44692.75979c-8.09239.46183-16.37248.56609-23.97623-.35754 8.55718-.29793 16.82687-1.59554 24.81796-3.96874zm-44.14315.1488v.99813c-.47672,0-.53633-.26803-.59592-.56609 .14913-.52142.32782-.40225.56613-.44695zm112.62304.44692c4.32778,1.37059 8.41271,3.39963 12.54977,5.25141-4.00448-.74488-8.02388-1.43017-12.02836-2.76499 0,0 0-.14913-.1488-.20858 .56609-.6108.32782-1.07263.31287-1.56276l-.59592.14913-.14913-.8045zm-113.3843.52142c.22353.31287.41713.44692 1.16201.32782 0,1.2663.1488,2.4581-.14913,2.76648-.56609-.19364-1.162-.32782-1.60447-.59588 .75979-.71509.84917-1.60747.56612-2.48643zm164.06304.99813c-.20858.8045-.40221,1.5881-1.04284,2.12443 0-.55124-.1488-1.10245-.1488-1.56425 .38733-.26803.77467-.46183 1.16201-.56612zm-148.9077,1.60302c9.6894,1.34076 18.45221,1.6998 28.58707,1.16201l.59588.1488-.40222,1.72218c-1.55831,1.61936-2.91099,3.4175-3.88979,5.6149-1.48976,1.47488-.83426,2.67711-.68529,3.96871-.55122,2.54452-.4916,5.11288-.1488,7.6574l.80446,2.76648c-1.85623-.86405-5.05625-2.64731-6.73519-3.84805 .0133-.14913 0-.14913.1488-.23847-.20858-7.60376 1.01304-16.11773-11.34752-15.95685-2.16611-.19364-4.20263-.49163-5.533-1.28118l-1.40034-1.56276v-.14913zm99.15113,0c3.78547,1.32588 7.8883,1.94116 11.82722,2.56684 3.08978,1.11734 7.0004,2.7248 9.26187,3.16724 .56609.14913 1.38547,0 2.28529-.1488-1.29609.78958-2.41342,1.76387-3.12701,2.84693-.1488.14913.28298.35754.28298.35754l-.56609,1.35567c-.90875,2.16017-1.47488,4.40822-1.84434,6.695l-9.74304,6.25552-.96834.16374c0-2.15569.64059-4.47229-.28298-6.29425 0-4.47375.14913-9.02649-.23847-13.39147l-3.8883-.14913-.28298,1.56425c-.98325-2.13483-1.84879-3.54564-2.72626-5.05177zm33.79972,2.28529v.1488c-.64059.28298-1.49869.53633-2.36573.75979-1.04284-.01328-2.33447.20858-3.68865.59592-.01329.0066 0-.0066 0,0-.75979.22353-1.56276.50651-2.32551.83426-1.40038.50651-2.8276.90875-4.08941.47671l-7.25664-2.44468h-.23847c6.65176.43201 13.28718.93855 20.04622-.31287zm-.28298.56609-.32782.71509c-.23847-.1488-.52142-.25342-.87896-.32782 .46183-.14913.86408-.28298 1.20671-.40225zm-15.63653,15.91662c-.22353,1.79519-.38734,3.59928-.52142,5.4138-.0015.01328 0,0 0,0l-8.46037.14913 8.98179-5.533zm-99.19285,1.68492c2.67412,1.7356 5.04732,2.79332 7.37731,3.72888v.19363l-8.61979-.19363c.43204-1.2365.86408-2.47002 1.20671-3.72888zm96.82709,5.09053 .23847,31.79452h-8.01939l-.1488-9.38104v-2.1244-11.02574h.92363l.23847-2.12589h1.68492c.44692-.92363.40221-1.87859 0-2.80521h-1.68492l-.28298-2.327h-.92363v-1.80412l7.85851-.20858zm-98.59099.20858 3.00784.1488-.28297,31.51294h-6.09464c-.0133-2.54153-.5363-6.7233.14913-7.09572 1.38546-.34266 1.6715-1.28121 1.08751-2.68604 1.45996-1.85922 2.65325-3.7691 1.11733-6.37469-.14913-2.63838-.28298-5.43764-.44692-8.37992l.59588.40225c.23847-1.11734-.16374-2.11846-.68529-3.08829 .49162-1.45996 1.02796-2.91548 1.56276-4.36946zm3.80932.1488 5.77283.14913c.61083,4.00893 3.01233,7.489 1.72368,12.06855 1.69535,3.72144 2.28977,7.67676 2.04542,11.78699 .56612,2.01715.87896,3.92105-.28298,5.17097 .14913.80446.32782,1.64025.14913,2.36576h-9.94269l.5661-31.51297zm-11.9881.56612v1.76387c-.84917,1.07263-1.02793,1.86517-1.28121,2.64582l-.40222-.75979 1.68343-3.64694zm28.86712,8.219h1.08754c1.05772,3.18361-.55121,5.60896.96834,8.42014-.40225,1.47484.0015,2.97207.56612,4.44991 .47671,1.71176.86405,3.53222 2.64582,3.93002v5.93222h-5.93375l-.87896-3.52777 .35754-5.97394c.35754-2.04246.29793-3.44879.28298-4.9311 .96834-1.67897 1.22159-3.68121.23847-6.13486-.29793-.81938-.22353-1.54489.64062-2.16462zm7.13747.44692c1.0428.14913 2.08414-.1488 3.12698.47675l.35754,1.20671c-.92363,2.34637-.1488,4.84468.64062,7.37728l.16374,6.6965c-.49162,1.56871-.99816,3.14189-.16374,5.09199-.19363.73-.62571.95346-.99816,1.32592l.19363.1488h-3.97021v-5.93222c1.01304-.46183 1.53147-1.28121 1.96501-2.12589 .40221-1.67599.46183-3.24768.28298-4.73149-.75979-3.17468-1.79366-6.32703-1.6432-9.50171zm55.93012.23847h1.32592l.75976.71509 .28298,1.11734 .71509,20.16692h-2.9274v-2.68458c-.70017.0066-1.29609-.1488-1.2365-.64059l.44692-6.49536c1.04284-1.89649-.1488-2.73075-.44692-3.92998 .40225-.96837.50654-2.25553.32782-3.80786 1.17692-.89384.64059-2.90502.75979-4.49162zm-10.66521.28298c.25342,2.05439.44695,4.14454 1.44508,6.0127l.56612,2.68753c-.53633,3.0376.47671,3.58138.80446,5.25288l-.80446,2.16466c1.16201,1.34076 1.82495,2.67113 4.49013.99813l-.16374,1.16201c.40225.47671.46183.96834-.47671,1.44509l.16374,2.04396h-9.98291v-.8045c.62571-1.84431.77467-3.51136.23847-4.97133-.22353-3.63502.25309-7.09572 1.56426-10.3449 .44692-1.5881-.75979-3.25515.35754-5.37211l1.76387-.28298zm-37.64776,0 15.23578,1.68346l.14913,17.76243-1.2365,2.24357h-14.59373 .14913c-.50654-.55121-1.07263-1.07263-.44692-2.56687l-.28298-3.84805 .59592-7.17766c.90875-2.61752 1.55977-5.29014.56612-8.09837zm29.18892.83429 .1488.56609-1.20671.35754c-1.16201,3.41604-.95346,5.81903 3.24768,5.21269l-.20858,8.89985c-.58104,1.37059-.73,2.85736 0,4.61079l-.47675,1.2365h-9.30206l-1.20671-2.9661-.28298-14.95423 .80446-.59592v-1.44509l8.46037-.92363zm-72.5708,3.64843c.47672-.01328.43201.62567.44693,1.20668-.37246-.19363-.55122-.67038-.44693-1.20668zm-4.73149.28298 .35755,2.6041c1.1918,2.84842 1.87114,6.08268.19363,11.18663v1.92475c-.40225.43204-1.07263.73-1.72368,1.04284l-.28298-2.44617 .83429-6.97656v-6.05442l.71509-1.28118zm7.85848,11.62611 .28297,5.33186h-2.76502v-3.84808c.99817-.38733 1.895-.64059 2.44471-1.48976zm-3.92849,3.64843 .20858,1.68342h-1.04284c.14913-.6555.14913-1.43017.83426-1.68342z" fill-rule="evenodd"/>
<path d="M520.5 78.1z"/>
</svg>
